<?xml version="1.0" encoding="UTF-8"?>
<svg id="Layer_1" data-name="Layer 1" xmlns="http://www.w3.org/2000/svg" viewBox="0 0 103 103">
  <defs>
    <style>
      .cls-1 {
        fill: #231815;
      }

      .cls-1, .cls-2 {
        stroke-width: 0px;
      }

      .cls-3 {
        stroke-linejoin: round;
      }

      .cls-3, .cls-4 {
        stroke-width: 3px;
      }

      .cls-3, .cls-4, .cls-5 {
        stroke: #070606;
      }

      .cls-3, .cls-5 {
        fill: none;
        stroke-linecap: round;
      }

      .cls-2 {
        fill: #070606;
      }

      .cls-4 {
        fill: #fff;
      }

      .cls-4, .cls-5 {
        stroke-miterlimit: 10;
      }

      .cls-6 {
        isolation: isolate;
      }

      .cls-5 {
        stroke-width: 2px;
      }
    </style>
  </defs>
  <g id="Four_Color_Sequence_Plot" data-name="Four Color Sequence Plot">
    <rect id="square" class="cls-4" x="1.5" y="1.5" width="100" height="100" rx="7.81" ry="7.81"/>
  </g>
  <path class="cls-3" d="M45.79,64.32h-27.94c-1.94.05-3.56-1.48-3.61-3.42,0-.06,0-.11,0-.17V22.75c.01-.38.16-.75.41-1.03,4.55-4.57,9.11-9.11,13.67-13.65.31-.31.65-.59.98-.89h24.89c.1.04.2.09.3.12,1.56.44,2.63,1.87,2.59,3.49v31.51"/>
  <path class="cls-3" d="M29.88,8v10.55c0,1.89-1.03,3.28-2.73,3.71-.42.09-.85.13-1.28.12h-10.34"/>
  <path class="cls-3" d="M85.86,38.68c.1.04.2.09.3.12,1.56.44,2.63,1.87,2.59,3.49v49.92c.05,1.94-1.48,3.56-3.42,3.61-.06,0-.11,0-.17,0h-35.65c-1.94.05-3.56-1.48-3.61-3.42,0-.06,0-.11,0-.17v-37.99c0-.38.16-.75.42-1.03,4.55-4.57,9.1-9.11,13.66-13.63.31-.31.66-.59.98-.89l24.89-.02Z"/>
  <path class="cls-3" d="M61.55,39.49v10.55c0,1.89-1.03,3.28-2.73,3.71-.42.09-.85.13-1.28.12h-10.33"/>
  <path class="cls-5" d="M19.66,72.42c-3.28,5.23-1.69,12.13,3.55,15.41,5.23,3.28,12.13,1.69,15.41-3.55h0"/>
  <polygon class="cls-2" points="40.81 89.71 39.6 89.83 38.96 83.86 33.05 84.93 32.83 83.73 40.04 82.43 40.81 89.71"/>
  <g class="cls-6">
    <path class="cls-1" d="M16.84,32.43c0-.24.12-.37.36-.37h5.44c.48,0,.93.09,1.36.28.43.19.8.44,1.12.76s.57.69.76,1.12c.19.43.28.89.28,1.38,0,.41-.06.79-.19,1.15-.13.35-.31.67-.55.95.39.36.7.79.93,1.29.23.5.35,1.03.35,1.58,0,.5-.1.97-.29,1.41-.19.44-.45.84-.78,1.17-.33.34-.71.61-1.14.8-.43.2-.89.29-1.38.29h-5.92c-.24,0-.36-.12-.36-.36v-11.46ZM20.01,34.49v2.38h1.74c.19,0,.36-.03.51-.09.15-.06.29-.14.4-.25.11-.11.2-.23.26-.38.06-.15.09-.3.09-.47s-.03-.32-.09-.46c-.06-.14-.15-.27-.26-.38-.11-.11-.24-.19-.39-.26-.15-.06-.32-.09-.5-.09h-1.77ZM20.01,39.07v2.74h2.2c.17,0,.33-.04.48-.11.15-.07.28-.17.4-.3.12-.13.21-.27.28-.44.07-.17.1-.34.1-.52,0-.17-.03-.33-.09-.49s-.15-.31-.26-.44c-.11-.13-.25-.24-.4-.32-.15-.08-.32-.12-.5-.12h-2.2Z"/>
    <path class="cls-1" d="M31.9,32.43c.1-.24.26-.37.5-.37h2.01c.23,0,.4.12.5.37l4.48,11.46c.1.24.02.36-.23.36h-2.44c-.25,0-.41-.12-.49-.36l-.57-1.61h-4.48l-.56,1.61c-.08.24-.24.36-.5.36h-2.44c-.24,0-.32-.12-.23-.36l4.45-11.46ZM33.39,35.92l-1.29,3.73h2.61l-1.32-3.73Z"/>
    <path class="cls-1" d="M44.23,37.29l-.69,6.6c-.01.12-.04.21-.1.27-.05.06-.14.09-.26.09h-2.33c-.12,0-.21-.03-.28-.09-.07-.06-.09-.15-.08-.27l1.22-11.46c.01-.12.04-.21.1-.27.05-.06.14-.09.26-.09h2.87c.12,0,.2.03.24.09s.08.15.12.28l2.24,7.37,2.24-7.37c.04-.13.08-.22.12-.28s.12-.09.24-.09h2.87c.12,0,.21.03.26.09s.09.15.1.27l1.22,11.46c.01.12-.02.21-.08.27s-.16.09-.28.09h-2.33c-.12,0-.21-.03-.26-.09-.05-.06-.09-.15-.1-.27l-.67-6.43-1.91,6.42c-.05.15-.09.25-.15.3-.05.05-.14.08-.26.08h-2.03c-.12,0-.21-.03-.26-.08-.05-.05-.1-.15-.14-.3l-1.89-6.58Z"/>
  </g>
  <g class="cls-6">
    <path class="cls-1" d="M58.27,74.47c.2-.03.39-.07.57-.12v-2.17c0-.24.12-.36.36-.36h2.29c.07,0,.14.02.23.06.08.04.12.14.12.29v3.96c0,.08-.01.15-.04.22s-.08.12-.16.17c-.5.32-1.09.57-1.76.74-.67.18-1.38.26-2.12.26-.87,0-1.69-.17-2.45-.5s-1.43-.78-2-1.35c-.57-.57-1.02-1.24-1.35-2s-.5-1.58-.5-2.45.16-1.69.49-2.44c.33-.76.77-1.42,1.34-1.98.57-.56,1.23-1,1.99-1.33.76-.32,1.58-.49,2.45-.49.74,0,1.4.1,1.97.29.57.19,1.11.48,1.61.85.09.06.14.14.16.22.02.08,0,.16-.06.24l-1.36,1.95c-.06.1-.15.15-.26.15-.08,0-.16-.03-.23-.09-.25-.18-.52-.33-.82-.44-.3-.11-.62-.17-.98-.17-.48,0-.91.08-1.29.25-.38.17-.71.4-.99.69-.27.29-.48.63-.63,1.03-.15.39-.22.82-.22,1.27s.08.87.23,1.27c.15.4.36.74.64,1.04.27.3.6.53.97.7.37.17.78.26,1.23.26.19,0,.39-.01.59-.04Z"/>
    <path class="cls-1" d="M64.26,65.54c0-.24.12-.37.36-.37h7.81c.24,0,.36.12.36.37v2.1c0,.24-.12.36-.36.36h-5v2.53h3.67c.24,0,.36.12.36.37v1.99c0,.24-.12.36-.36.36h-3.67v3.75c0,.24-.12.36-.36.36h-2.45c-.24,0-.36-.12-.36-.36v-11.46Z"/>
    <path class="cls-1" d="M74.89,65.54c0-.24.12-.37.36-.37h7.81c.24,0,.36.12.36.37v2.1c0,.24-.12.36-.36.36h-5v2.53h3.67c.24,0,.36.12.36.37v1.99c0,.24-.12.36-.36.36h-3.67v3.75c0,.24-.12.36-.36.36h-2.45c-.24,0-.36-.12-.36-.36v-11.46Z"/>
  </g>
</svg>