<?xml version="1.0" encoding="UTF-8"?>
<svg id="Layer_1" data-name="Layer 1" xmlns="http://www.w3.org/2000/svg" viewBox="0 0 103 103">
  <defs>
    <style>
      .cls-1 {
        fill: #231815;
      }

      .cls-1, .cls-2 {
        stroke-width: 0px;
      }

      .cls-3 {
        stroke-linejoin: round;
      }

      .cls-3, .cls-4 {
        stroke-width: 3px;
      }

      .cls-3, .cls-4, .cls-5 {
        stroke: #070606;
      }

      .cls-3, .cls-5 {
        fill: none;
        stroke-linecap: round;
      }

      .cls-2 {
        fill: #070606;
      }

      .cls-4 {
        fill: #fff;
      }

      .cls-4, .cls-5 {
        stroke-miterlimit: 10;
      }

      .cls-6 {
        isolation: isolate;
      }

      .cls-5 {
        stroke-width: 2px;
      }
    </style>
  </defs>
  <g id="Four_Color_Sequence_Plot" data-name="Four Color Sequence Plot">
    <rect id="square" class="cls-4" x="1.5" y="1.5" width="100" height="100" rx="7.81" ry="7.81"/>
  </g>
  <path class="cls-3" d="M45.84,64.32h-27.98c-1.94.05-3.56-1.48-3.61-3.42,0-.06,0-.11,0-.17V22.75c.01-.38.16-.75.41-1.03,4.55-4.57,9.11-9.11,13.67-13.65.31-.31.65-.59.98-.89h24.89c.1.04.2.09.3.12,1.56.44,2.63,1.87,2.59,3.49v31.7"/>
  <path class="cls-3" d="M29.88,8v10.55c0,1.89-1.03,3.28-2.73,3.71-.42.09-.85.13-1.28.12h-10.34"/>
  <path class="cls-3" d="M85.86,38.68c.1.04.2.09.3.12,1.56.44,2.63,1.87,2.59,3.49v49.92c.05,1.94-1.48,3.56-3.42,3.61-.06,0-.11,0-.17,0h-35.65c-1.94.05-3.56-1.48-3.61-3.42,0-.06,0-.11,0-.17v-37.99c0-.38.16-.75.42-1.03,4.55-4.57,9.1-9.11,13.66-13.63.31-.31.66-.59.98-.89l24.89-.02Z"/>
  <path class="cls-3" d="M61.55,39.49v10.55c0,1.89-1.03,3.28-2.73,3.71-.42.09-.85.13-1.28.12h-10.33"/>
  <path class="cls-5" d="M19.66,72.42c-3.28,5.23-1.69,12.13,3.55,15.41,5.23,3.28,12.13,1.69,15.41-3.55h0"/>
  <polygon class="cls-2" points="40.59 90.23 39.38 90.36 38.74 84.39 32.83 85.46 32.61 84.26 39.82 82.95 40.59 90.23"/>
  <g class="cls-6">
    <path class="cls-1" d="M17.23,32.36c0-.24.12-.37.36-.37h5.44c.48,0,.93.09,1.36.28.43.19.8.44,1.12.76s.57.69.76,1.12c.19.43.28.89.28,1.38,0,.41-.06.79-.19,1.15-.13.35-.31.67-.55.95.39.36.7.79.93,1.29.23.5.35,1.03.35,1.58,0,.5-.1.97-.29,1.41-.19.44-.45.84-.78,1.17-.33.34-.71.61-1.14.8-.43.2-.89.29-1.38.29h-5.92c-.24,0-.36-.12-.36-.36v-11.46ZM20.4,34.42v2.38h1.74c.19,0,.36-.03.51-.09.15-.06.29-.14.4-.25.11-.11.2-.23.26-.38.06-.15.09-.3.09-.47s-.03-.32-.09-.46c-.06-.14-.15-.27-.26-.38-.11-.11-.24-.19-.39-.26-.15-.06-.32-.09-.5-.09h-1.77ZM20.4,39v2.74h2.2c.17,0,.33-.04.48-.11.15-.07.28-.17.4-.3.12-.13.21-.27.28-.44.07-.17.1-.34.1-.52,0-.17-.03-.33-.09-.49s-.15-.31-.26-.44c-.11-.13-.25-.24-.4-.32-.15-.08-.32-.12-.5-.12h-2.2Z"/>
    <path class="cls-1" d="M32.3,32.36c.1-.24.26-.37.5-.37h2.01c.23,0,.4.12.5.37l4.48,11.46c.1.24.02.36-.23.36h-2.44c-.25,0-.41-.12-.49-.36l-.57-1.61h-4.48l-.56,1.61c-.08.24-.24.36-.5.36h-2.44c-.24,0-.32-.12-.23-.36l4.45-11.46ZM33.79,35.84l-1.29,3.73h2.61l-1.32-3.73Z"/>
    <path class="cls-1" d="M44.63,37.22l-.69,6.6c-.01.12-.04.21-.1.27-.05.06-.14.09-.26.09h-2.33c-.12,0-.21-.03-.28-.09-.07-.06-.09-.15-.08-.27l1.22-11.46c.01-.12.04-.21.1-.27.05-.06.14-.09.26-.09h2.87c.12,0,.2.03.24.09s.08.15.12.28l2.24,7.37,2.24-7.37c.04-.13.08-.22.12-.28s.12-.09.24-.09h2.87c.12,0,.21.03.26.09s.09.15.1.27l1.22,11.46c.01.12-.02.21-.08.27s-.16.09-.28.09h-2.33c-.12,0-.21-.03-.26-.09-.05-.06-.09-.15-.1-.27l-.67-6.43-1.91,6.42c-.05.15-.09.25-.15.3-.05.05-.14.08-.26.08h-2.03c-.12,0-.21-.03-.26-.08-.05-.05-.1-.15-.14-.3l-1.89-6.58Z"/>
  </g>
  <g class="cls-6">
    <path class="cls-1" d="M51.88,65.54c0-.24.12-.37.36-.37h5.44c.48,0,.93.09,1.36.28.43.19.8.44,1.12.76.32.32.57.69.76,1.12.19.43.28.89.28,1.38,0,.41-.06.79-.19,1.15-.13.35-.31.67-.55.95.39.36.7.79.93,1.29s.35,1.03.35,1.58c0,.5-.1.97-.29,1.41-.19.44-.45.84-.78,1.17-.33.34-.71.61-1.14.8s-.89.29-1.38.29h-5.92c-.24,0-.36-.12-.36-.36v-11.46ZM55.05,67.6v2.38h1.74c.19,0,.36-.03.51-.09s.29-.14.4-.25c.11-.11.2-.23.26-.38.06-.15.09-.3.09-.47s-.03-.32-.09-.46c-.06-.14-.15-.27-.26-.38-.11-.11-.24-.19-.39-.26-.15-.06-.32-.09-.5-.09h-1.77ZM55.05,72.18v2.74h2.2c.17,0,.33-.04.48-.11.15-.07.28-.17.4-.3.12-.13.21-.27.28-.44.07-.17.1-.34.1-.52,0-.17-.03-.33-.09-.49-.06-.16-.15-.31-.27-.44-.11-.13-.25-.24-.4-.32-.15-.08-.32-.12-.5-.12h-2.2Z"/>
    <path class="cls-1" d="M63.45,65.54c0-.24.12-.37.36-.37h8.16c.24,0,.36.12.36.37v2.1c0,.24-.12.36-.36.36h-5.35v2.03h4.06c.13,0,.22.03.29.09s.11.16.11.29v1.69c0,.24-.13.36-.4.36h-4.06v2.09h5.5c.24,0,.37.12.37.36v2.09c0,.24-.12.36-.37.36h-8.31c-.24,0-.36-.12-.36-.36v-11.46Z"/>
    <path class="cls-1" d="M74.39,65.54c0-.24.12-.37.36-.37h4.26c.51,0,1.02.07,1.52.22.5.15.97.35,1.42.61.45.26.87.58,1.25.95.38.37.71.78.99,1.23.28.45.5.94.66,1.46.16.52.24,1.06.24,1.63,0,.53-.07,1.05-.22,1.56-.15.51-.35.99-.61,1.44-.26.45-.58.86-.95,1.24-.37.38-.78.7-1.23.97-.45.27-.93.48-1.45.64-.52.15-1.06.23-1.62.23h-4.26c-.24,0-.36-.12-.36-.36v-11.46ZM81.65,70.03c-.16-.39-.39-.72-.67-1.01-.28-.29-.62-.52-1.01-.68-.39-.17-.81-.25-1.27-.25h-1.14v6.37h1.14c.46,0,.88-.08,1.27-.25.39-.17.73-.4,1.01-.68s.51-.62.67-1.01c.16-.38.24-.8.24-1.23s-.08-.86-.24-1.25Z"/>
  </g>
</svg>