<?xml version="1.0" encoding="UTF-8"?>
<svg id="Layer_1" data-name="Layer 1" xmlns="http://www.w3.org/2000/svg" viewBox="0 0 103 103">
  <defs>
    <style>
      .cls-1 {
        fill: #231815;
      }

      .cls-1, .cls-2, .cls-3 {
        stroke-width: 0px;
      }

      .cls-4, .cls-5, .cls-6 {
        fill: none;
      }

      .cls-4, .cls-7 {
        stroke-width: 3px;
      }

      .cls-4, .cls-7, .cls-6 {
        stroke: #070606;
      }

      .cls-4, .cls-6 {
        stroke-linecap: round;
        stroke-linejoin: round;
      }

      .cls-2 {
        fill: #070606;
      }

      .cls-5 {
        stroke: #221f20;
      }

      .cls-5, .cls-7 {
        stroke-miterlimit: 10;
      }

      .cls-5, .cls-6 {
        stroke-width: 2px;
      }

      .cls-3 {
        fill: #040000;
      }

      .cls-7 {
        fill: #fff;
      }

      .cls-8 {
        isolation: isolate;
      }
    </style>
  </defs>
  <g id="c">
    <rect id="d" class="cls-7" x="1.5" y="1.5" width="100" height="100" rx="7.81" ry="7.81"/>
  </g>
  <g id="e">
    <g>
      <line class="cls-6" x1="22.92" y1="55.12" x2="22.92" y2="72.85"/>
      <polygon class="cls-2" points="16.53 67.67 17.68 66.61 22.92 72.25 28.16 66.61 29.31 67.67 22.92 74.55 16.53 67.67"/>
    </g>
  </g>
  <g id="f">
    <g class="cls-8">
      <g class="cls-8">
        <path class="cls-1" d="M23.59,15.94c-.04-.06-.06-.12-.07-.17-.01-.06,0-.12.02-.18.02-.06.07-.13.14-.2l1.1-1.07c.07-.06.14-.1.21-.1.09,0,.19.05.3.15.13.11.27.23.42.33s.3.2.46.28c.16.08.33.15.5.2.17.05.35.07.53.07.21,0,.38-.02.51-.05s.24-.08.33-.15c.08-.06.14-.14.17-.22.03-.08.05-.18.05-.27,0-.11-.02-.21-.06-.29-.04-.08-.12-.15-.23-.22-.11-.07-.27-.14-.47-.21-.2-.07-.46-.15-.78-.24-.5-.15-.93-.32-1.29-.52-.36-.2-.66-.44-.9-.71-.24-.27-.41-.58-.52-.93-.11-.35-.17-.75-.17-1.19,0-.4.08-.77.25-1.11s.41-.64.72-.88c.32-.25.71-.44,1.17-.58s.99-.21,1.58-.21c.44,0,.82.05,1.15.14.33.09.62.21.87.35.25.14.47.29.65.46.19.17.36.32.52.47.11.1.17.19.17.29s-.05.2-.18.31l-1.2,1.04c-.1.08-.18.12-.25.12s-.16-.04-.26-.13c-.09-.08-.19-.15-.28-.23-.1-.08-.2-.14-.31-.2-.11-.06-.23-.1-.36-.14-.13-.04-.28-.05-.45-.05-.31,0-.54.05-.69.15-.15.1-.22.21-.22.33s.03.22.1.3.18.14.34.2c.16.06.37.13.63.2.26.07.58.17.96.3.52.17.94.37,1.27.62.33.24.58.51.76.79.18.28.3.58.37.88.07.3.1.6.1.9,0,.52-.11.97-.32,1.37s-.5.74-.85,1.01-.76.48-1.22.63c-.46.14-.93.22-1.42.22-.33,0-.66-.02-.99-.07s-.66-.14-.98-.26c-.32-.13-.63-.3-.93-.51s-.58-.49-.84-.82c-.04-.05-.07-.1-.11-.16Z"/>
        <path class="cls-1" d="M42.02,14.3c.1,0,.17.04.2.11l1.12,1.64c.06.11.09.2.09.27,0,.07-.05.15-.15.23-.18.16-.39.31-.64.46-.25.15-.51.28-.8.39-.28.11-.58.2-.88.26-.3.06-.6.1-.89.1-.71,0-1.37-.14-1.99-.39s-1.17-.61-1.63-1.07c-.46-.46-.83-1-1.1-1.63s-.4-1.32-.4-2.07c0-.71.13-1.37.4-1.99.27-.62.63-1.16,1.09-1.62.46-.46,1-.83,1.61-1.09s1.27-.4,1.97-.4c.37,0,.7.03,1,.08.3.05.58.12.84.22.26.1.51.21.74.35.23.14.46.3.69.48.06.05.11.11.13.17s0,.12-.04.19l-1.11,1.73c-.04.06-.1.09-.19.09-.08,0-.14-.02-.2-.06-.34-.24-.66-.4-.94-.49-.29-.09-.59-.13-.9-.13s-.58.06-.85.18c-.27.12-.51.29-.72.51s-.37.48-.49.79-.18.64-.18,1.01.06.7.17,1.01c.12.3.28.56.48.78.2.22.44.38.72.5.28.12.57.18.89.18.18,0,.36-.02.53-.07.17-.04.33-.1.48-.17s.29-.14.42-.22c.13-.08.24-.16.34-.23.07-.05.14-.07.21-.07Z"/>
        <path class="cls-1" d="M47.59,6.31c0-.23.11-.35.34-.35h2.34c.23,0,.34.12.34.35v10.91c0,.23-.11.34-.34.34h-2.34c-.23,0-.34-.11-.34-.34V6.31Z"/>
      </g>
      <g class="cls-8">
        <path class="cls-1" d="M55.15,6.31c0-.23.11-.35.34-.35h4.05c.49,0,.97.07,1.44.21.47.14.93.33,1.36.58.43.25.82.55,1.19.91.36.36.68.75.94,1.18s.47.89.63,1.39c.15.5.23,1.01.23,1.55,0,.5-.07,1-.21,1.49-.14.49-.33.94-.58,1.37-.25.43-.55.82-.9,1.18-.35.36-.74.67-1.17.93-.43.26-.89.46-1.38.61s-1,.22-1.54.22h-4.05c-.23,0-.34-.11-.34-.34V6.31ZM62.08,10.58c-.16-.37-.37-.69-.64-.96s-.59-.49-.96-.65c-.37-.16-.77-.24-1.21-.24h-1.09v6.07h1.09c.43,0,.84-.08,1.21-.24.37-.16.69-.38.96-.65.27-.27.48-.59.64-.96.15-.37.23-.76.23-1.18s-.08-.82-.23-1.19Z"/>
      </g>
      <g class="cls-8">
        <path class="cls-1" d="M75.23,11.63l3.74,5.59c.07.1.08.19.04.25-.04.06-.12.09-.23.09h-2.66c-.11,0-.21-.03-.28-.09s-.15-.14-.22-.25l-2.07-3.1-2.08,3.1c-.09.14-.17.23-.23.28-.06.04-.15.06-.26.06h-2.64c-.11,0-.19-.03-.23-.09s-.03-.14.04-.25l3.74-5.59-3.54-5.31c-.07-.1-.09-.18-.07-.25.02-.07.09-.11.2-.11h2.7c.11,0,.21.03.27.08.07.05.14.14.22.27l1.88,2.82,1.88-2.82c.08-.11.15-.19.22-.26.07-.06.16-.09.28-.09h2.67c.11,0,.19.04.23.11.04.07.03.15-.03.24l-3.57,5.32Z"/>
      </g>
    </g>
  </g>
  <g id="g">
    <line class="cls-4" x1="101.5" y1="20.42" x2="1.5" y2="20.42"/>
  </g>
  <g id="h">
    <rect class="cls-3" x="15.86" y="29.49" width="16.16" height="1.05"/>
    <rect class="cls-3" x="15.86" y="33.83" width="28.03" height="1.05"/>
    <rect class="cls-3" x="15.86" y="38.16" width="43.55" height="1.05"/>
    <rect class="cls-3" x="15.86" y="42.77" width="51.71" height="1.05"/>
    <rect class="cls-3" x="15.86" y="47.75" width="53.3" height="1.05"/>
    <rect class="cls-3" x="30.54" y="52.68" width="45.93" height="1.05"/>
    <rect class="cls-3" x="38.81" y="57.71" width="43.64" height="1.05"/>
    <rect class="cls-3" x="38.81" y="63.11" width="45.06" height="1.05"/>
    <rect class="cls-3" x="52.72" y="29.53" width="38.48" height="1.05"/>
    <rect class="cls-3" x="68.99" y="33.82" width="22.21" height="1.05"/>
    <rect class="cls-3" x="74.95" y="38.23" width="16.26" height="1.05"/>
    <rect class="cls-3" x="79.31" y="42.83" width="11.89" height="1.05"/>
    <path class="cls-5" d="M15.96,92.23c.32,0,5.63.04,7.21,0,.11,0,.36,0,.69-.07.92-.16,1.55-.56,1.87-.76,1.02-.64,1.76-1.66,2.35-2.65.26-.43.9-1.53,1.81-4.04.42-1.16.71-2.14,1.29-4.09.46-1.55.8-2.8,1.21-4.29.26-.95.45-1.72.82-3.05,0,0,.37-1.3,1.4-3.39.08-.16.25-.38.58-.8.05-.07.16-.2.35-.28.14-.06.27-.06.3-.06.03,0,.14,0,.29.06.02,0,.21.09.37.24.55.54,1.22,2.18,1.22,2.18.21.5.31.75.35.86.28.73.41,1.25.57,1.79.41,1.42.43,1.3.82,2.66.2.7.12.46.53,1.99.45,1.66.75,2.7.86,3.07.2.66.29.99.37,1.23.11.37.3.96.55,1.69.33.95.62,1.65.68,1.8.49,1.2.8,1.96,1.37,2.89.39.64.64,1.03,1.12,1.48.35.33.93.79,1.75,1.12.39.16.87.3,1.53.4,2.28.32,7.27.08,7.53.07"/>
    <path class="cls-5" d="M47.93,92.2c.34,0,6.06.16,7.78.14.12,0,.39,0,.75-.03,1-.06,1.7-.23,2.04-.3,1.11-.26,1.91-.67,2.56-1.07.28-.17.98-.62,1.97-1.63.46-.47.77-.86,1.4-1.65.5-.63.88-1.13,1.32-1.73.28-.38.48-.7.9-1.23,0,0,.4-.52,1.53-1.37.09-.07.27-.15.63-.32.05-.03.17-.08.38-.11.16-.02.29-.02.32-.02s.15,0,.31.02c.02,0,.23.04.41.1.6.22,1.33.88,1.33.88.22.2.34.3.38.35.3.3.45.5.62.72.45.57.46.52.89,1.07.22.29.13.19.58.8.49.67.82,1.09.94,1.24.21.27.32.4.4.5.13.15.33.39.61.68.36.38.68.67.74.73.53.48.87.79,1.5,1.17.43.26.7.42,1.23.6.38.13,1.02.32,1.9.45.42.06.95.13,1.67.16,2.48.13,7.91.03,8.2.03"/>
  </g>
</svg>