<?xml version="1.0" encoding="UTF-8"?>
<svg id="Layer_1" data-name="Layer 1" xmlns="http://www.w3.org/2000/svg" viewBox="0 0 103 103">
  <defs>
    <style>
      .cls-1 {
        fill: #231815;
      }

      .cls-1, .cls-2 {
        stroke-width: 0px;
      }

      .cls-3, .cls-4 {
        stroke-width: 3px;
      }

      .cls-3, .cls-4, .cls-5, .cls-6 {
        stroke: #070606;
      }

      .cls-3, .cls-5 {
        stroke-linejoin: round;
      }

      .cls-3, .cls-5, .cls-6 {
        fill: none;
        stroke-linecap: round;
      }

      .cls-2 {
        fill: #070606;
      }

      .cls-4 {
        fill: #fff;
      }

      .cls-4, .cls-6 {
        stroke-miterlimit: 10;
      }

      .cls-5, .cls-6 {
        stroke-width: 2px;
      }

      .cls-7 {
        isolation: isolate;
      }
    </style>
  </defs>
  <g id="Four_Color_Sequence_Plot" data-name="Four Color Sequence Plot">
    <rect id="square" class="cls-4" x="1.5" y="1.5" width="100" height="100" rx="7.81" ry="7.81"/>
  </g>
  <path class="cls-3" d="M51.08,22.87c.1.05.2.09.3.12,1.56.44,2.63,1.87,2.6,3.49v49.93c.05,1.94-1.49,3.55-3.43,3.6-.06,0-.11,0-.17,0H14.73c-1.94.05-3.56-1.48-3.61-3.42,0-.06,0-.11,0-.17,0-12.66,0-25.33.02-37.99.01-.38.16-.74.41-1.03,4.54-4.56,9.09-9.11,13.67-13.65.31-.31.65-.59.98-.89h24.87Z"/>
  <path class="cls-3" d="M26.77,23.69v10.55c0,1.89-1.02,3.28-2.73,3.71-.42.09-.85.13-1.28.12-3.2,0-6.4,0-9.61,0h-.73"/>
  <line class="cls-6" x1="91.88" y1="41.23" x2="60.72" y2="41.23"/>
  <line class="cls-6" x1="91.88" y1="47.03" x2="60.72" y2="47.03"/>
  <line class="cls-6" x1="91.88" y1="53.11" x2="60.72" y2="53.11"/>
  <line class="cls-6" x1="82.84" y1="59.19" x2="60.72" y2="59.19"/>
  <line class="cls-6" x1="82.84" y1="65.27" x2="60.72" y2="65.27"/>
  <line class="cls-6" x1="78.32" y1="71.34" x2="60.72" y2="71.34"/>
  <line class="cls-6" x1="78.32" y1="77.42" x2="60.72" y2="77.42"/>
  <line class="cls-6" x1="91.88" y1="35.43" x2="60.72" y2="35.43"/>
  <line class="cls-6" x1="91.88" y1="29.63" x2="60.72" y2="29.63"/>
  <line class="cls-6" x1="91.88" y1="23.51" x2="60.72" y2="23.51"/>
  <g class="cls-7">
    <path class="cls-1" d="M15.25,46.91c0-.22.11-.33.32-.33h4.92c.43,0,.84.08,1.23.25.39.17.72.4,1.01.68.29.29.52.63.68,1.02s.25.81.25,1.25c0,.37-.06.72-.17,1.04-.11.32-.28.61-.49.86.35.33.63.71.84,1.17.21.45.32.93.32,1.43,0,.45-.09.87-.26,1.28-.17.4-.41.76-.7,1.06s-.64.55-1.03.73c-.39.18-.81.27-1.24.27h-5.36c-.22,0-.32-.11-.32-.32v-10.37ZM18.11,48.77v2.15h1.58c.17,0,.32-.03.46-.08.14-.05.26-.13.36-.22s.18-.21.24-.34c.06-.13.09-.27.09-.43s-.03-.29-.08-.42c-.05-.13-.13-.24-.23-.34-.1-.1-.22-.18-.36-.23-.14-.06-.29-.09-.45-.09h-1.6ZM18.11,52.91v2.48h1.99c.15,0,.3-.03.44-.1.14-.07.26-.16.36-.27.11-.11.19-.24.25-.39.06-.15.09-.31.09-.47,0-.15-.03-.3-.09-.44-.06-.15-.14-.28-.24-.4-.1-.12-.22-.22-.36-.29-.14-.07-.29-.11-.46-.11h-1.99Z"/>
    <path class="cls-1" d="M28.88,46.91c.09-.22.24-.33.46-.33h1.82c.21,0,.36.11.45.33l4.05,10.37c.09.22.02.32-.21.32h-2.21c-.22,0-.37-.11-.44-.32l-.52-1.45h-4.05l-.5,1.45c-.07.22-.22.32-.45.32h-2.21c-.22,0-.29-.11-.21-.32l4.03-10.37ZM30.22,50.06l-1.17,3.37h2.37l-1.2-3.37Z"/>
    <path class="cls-1" d="M40.03,51.3l-.63,5.97c-.01.11-.04.19-.09.24s-.13.08-.24.08h-2.11c-.11,0-.19-.03-.25-.08-.06-.05-.08-.14-.07-.24l1.11-10.37c.01-.11.04-.19.09-.25s.13-.09.24-.09h2.6c.11,0,.18.03.22.08.04.05.07.14.11.25l2.03,6.66,2.03-6.66c.04-.11.07-.2.11-.25.04-.05.11-.08.22-.08h2.6c.11,0,.19.03.24.09s.08.14.09.25l1.11,10.37c.01.11-.01.19-.07.24-.06.05-.14.08-.25.08h-2.11c-.11,0-.19-.03-.24-.08-.05-.05-.08-.14-.09-.24l-.6-5.82-1.73,5.81c-.04.13-.09.22-.13.27-.05.05-.12.07-.23.07h-1.84c-.11,0-.19-.02-.24-.07-.05-.05-.09-.14-.13-.27l-1.71-5.95Z"/>
  </g>
  <line class="cls-5" x1="87.36" y1="56.86" x2="87.36" y2="78.43"/>
  <polygon class="cls-2" points="80.97 73.26 82.11 72.19 87.36 77.83 92.6 72.19 93.75 73.26 87.36 80.13 80.97 73.26"/>
</svg>